<svg xmlns="http://www.w3.org/2000/svg" width="1515.684" height="1515.684" viewBox="0 0 1515.684 1515.684"><g fill="#69cc1f"><path d="M715.996 1335.38l-358.904-159.82c-17.09-7.61-30.193-21.419-36.896-38.884L179.42 769.883c-6.704-17.465-6.204-36.495 1.406-53.585l159.818-358.904c7.61-17.09 21.42-30.193 38.885-36.896l366.793-140.775c17.465-6.703 36.495-6.204 53.585 1.406l358.904 159.818c17.09 7.61 30.193 21.42 36.896 38.885l140.775 366.793c6.704 17.465 6.204 36.495-1.406 53.585l-159.818 358.904c-7.61 17.09-21.42 30.193-38.885 36.896L769.58 1336.785c-17.465 6.704-36.495 6.204-53.585-1.406z"/><path d="M787.698 208.549c-9.766-4.349-20.64-4.634-30.62-.804L390.285 348.52c-9.98 3.83-17.871 11.318-22.22 21.084L208.247 728.508c-4.349 9.766-4.634 20.64-.804 30.62l140.775 366.793c3.83 9.98 11.318 17.871 21.084 22.22l358.904 159.818c9.766 4.349 20.64 4.634 30.62.804l366.793-140.775c9.98-3.83 17.871-11.318 22.22-21.084L1307.657 788c4.349-9.766 4.634-20.64.804-30.62l-140.775-366.793c-3.83-9.98-11.318-17.871-21.084-22.22L787.698 208.55m24.42-54.84l358.904 159.818a100.052 100.052 0 0152.71 55.55l140.774 366.792a100.052 100.052 0 01-2.009 76.55l-159.818 358.905a100.052 100.052 0 01-55.55 52.71l-366.792 140.774a100.053 100.053 0 01-76.55-2.009l-358.905-159.818a100.053 100.053 0 01-52.71-55.55L151.399 780.638a100.052 100.052 0 012.009-76.55l159.818-358.904a100.052 100.052 0 0155.55-52.709L735.568 151.7a100.053 100.053 0 0176.55 2.009z"/></g></svg>