<svg xmlns="http://www.w3.org/2000/svg" width="218.996" height="49.302" viewBox="0 0 218.996 49.302"><path d="M35.454.5a2.492 2.492 0 00-2.489 2.489v7.964a.574.574 0 001.148 0V2.989a1.342 1.342 0 011.341-1.341h8.629a.574.574 0 000-1.148zm47.632 34.818a.574.574 0 00-.574.574v10.42a1.342 1.342 0 01-1.34 1.34h-8a.574.574 0 100 1.148h8a2.492 2.492 0 002.489-2.489V35.892a.574.574 0 00-.574-.574zM81.171.5h-7.839a.574.574 0 000 1.148h7.839a1.342 1.342 0 011.34 1.34v9.933a.574.574 0 001.148 0V2.989A2.492 2.492 0 0081.171.5zM42.876 47.649h-7.422a1.342 1.342 0 01-1.34-1.34v-7.377a.574.574 0 10-1.148 0v7.377a2.492 2.492 0 002.489 2.489h7.421a.574.574 0 100-1.148z" fill="#69cc1f" stroke="#69cc1f"/><path d="M16.098 17.776a4.307 4.307 0 00-2.077-1.4 6.939 6.939 0 00-2.437-.479 6.437 6.437 0 00-1.4.16 4.942 4.942 0 00-1.358.519 2.782 2.782 0 00-1.039.879 2.275 2.275 0 00-.4 1.358 2.251 2.251 0 00.959 1.957 9.133 9.133 0 002.4 1.158q1.478.479 3.156.959a12.561 12.561 0 013.116 1.358 7.356 7.356 0 012.437 2.357 7.183 7.183 0 01.959 3.955 9.092 9.092 0 01-.879 4.114 8.258 8.258 0 01-2.395 2.915 9.883 9.883 0 01-3.475 1.718 15.055 15.055 0 01-4.154.559 15.143 15.143 0 01-5.113-.839A12.813 12.813 0 010 36.311l4.434-4.873a6.7 6.7 0 002.4 2 7.2 7.2 0 003.036.679 7.35 7.35 0 001.518-.16 5.113 5.113 0 001.4-.559 2.778 2.778 0 001-.919 2.208 2.208 0 00.4-1.318 2.323 2.323 0 00-1-2 8.372 8.372 0 00-2.442-1.275q-1.478-.519-3.2-1.039a14.351 14.351 0 01-3.2-1.4 7.907 7.907 0 01-2.477-2.317 6.735 6.735 0 01-.959-3.795 8.655 8.655 0 01.879-3.995 9 9 0 012.4-2.876 10.356 10.356 0 013.481-1.719 13.706 13.706 0 014.035-.6 15.863 15.863 0 014.634.679 10.687 10.687 0 014.035 2.277zm14.429-1.398h-8.069v-5.513h22.37v5.513h-8.069v22.769h-6.232zm65.757 1.837a6.073 6.073 0 00-2.277-1.718 7.371 7.371 0 00-3.076-.6 7.673 7.673 0 00-5.872 2.6 9.077 9.077 0 00-1.718 2.876 10.733 10.733 0 00-.6 3.635 10.857 10.857 0 00.6 3.675 9.709 9.709 0 001.718 2.876 7.887 7.887 0 002.517 1.877 7.468 7.468 0 003.156.679 7.028 7.028 0 003.4-.8 6.759 6.759 0 002.437-2.237l5.193 3.875a10.814 10.814 0 01-4.554 3.715 14.091 14.091 0 01-5.672 1.2 17.424 17.424 0 01-6.112-1.039 14.148 14.148 0 01-4.833-2.956 13.937 13.937 0 01-3.2-4.714 17.477 17.477 0 010-12.3 13.515 13.515 0 013.2-4.674 13.838 13.838 0 014.833-3 17.424 17.424 0 016.112-1.039 13.433 13.433 0 012.477.24 12.071 12.071 0 012.557.679 11.22 11.22 0 012.437 1.278 9.611 9.611 0 012.077 1.957zm9.09-7.35h6.232v11.744l10.985-11.744h8.149l-12.583 13.142 13.66 15.14h-8.708l-11.5-13.422v13.422h-6.232z" fill="#4e4e55"/><path d="M134.605 10.865h8.469l12.024 19.653h.08V10.865h6.232v28.282h-8.149l-12.345-20.133h-.08v20.133h-6.231zm56.421 17.377a13.641 13.641 0 01-.759 4.634 10.141 10.141 0 01-5.992 6.112 15.664 15.664 0 01-10.346 0 10.538 10.538 0 01-3.755-2.437 10.34 10.34 0 01-2.237-3.675 13.641 13.641 0 01-.759-4.634V10.865h6.232v17.137a7.2 7.2 0 00.4 2.437 6.341 6.341 0 001.2 1.957 5.811 5.811 0 001.8 1.278 6.082 6.082 0 002.317.439 5.372 5.372 0 005.233-3.675 6.6 6.6 0 00.439-2.437V10.865h6.232zm5.76-17.377h10.546a24.391 24.391 0 013.675.28 9.529 9.529 0 013.356 1.039 6.229 6.229 0 012.4 2.157 6.674 6.674 0 01.919 3.715 5.953 5.953 0 01-1.358 3.995 7.3 7.3 0 01-3.515 2.237v.08a7.544 7.544 0 012.517.8 6.035 6.035 0 011.957 1.478 5.917 5.917 0 011.278 2.077A7.361 7.361 0 01219 31.28a6.9 6.9 0 01-.959 3.755 7.609 7.609 0 01-2.477 2.4 10.855 10.855 0 01-3.435 1.318 18 18 0 01-3.755.4h-11.588zm6.232 11.3h4.514a6.084 6.084 0 001.4-.16 3.909 3.909 0 001.278-.519 2.539 2.539 0 00.879-.959 2.744 2.744 0 00.36-1.438 2.417 2.417 0 00-.4-1.438 2.445 2.445 0 00-.959-.919 4.285 4.285 0 00-1.358-.439 7.165 7.165 0 00-1.478-.16h-4.238zm0 11.7h5.592a6.611 6.611 0 001.438-.16 3.855 3.855 0 001.358-.559 2.993 2.993 0 00.959-1.039 2.884 2.884 0 00.4-1.558 2.354 2.354 0 00-.519-1.6 2.945 2.945 0 00-1.238-.959 6.443 6.443 0 00-1.638-.439 12.168 12.168 0 00-1.638-.12h-4.716zM59.493 39.479a15.146 15.146 0 10-15.146-15.146 15.146 15.146 0 0015.146 15.146z" fill="#69cc1f"/><path d="M59.37 8.852a15.992 15.992 0 106.165 1.186 16.018 16.018 0 00-6.165-1.186zm5.662 16.183c-.1.235-.187.454-.288.668-.356.8-.758 1.585-1.056 2.4a1.794 1.794 0 01-1.14 1.177c-.8.288-1.575.649-2.377.934a1.948 1.948 0 01-1.129.177c-1.153-.416-2.269-.932-3.384-1.441a1.034 1.034 0 01-.452-.521 86.79 86.79 0 01-1.311-3.374 1.017 1.017 0 01.075-.655c.347-.852.709-1.7 1.1-2.534.174-.376.337-.893.651-1.046a30.826 30.826 0 013.3-1.312 1.586 1.586 0 011.019 0c1.055.415 2.09.883 3.112 1.379a1.33 1.33 0 01.517.631c.248.534.442 1.095.654 1.647.237.612.469 1.235.709 1.87zm5.371 8.719l-4.442-11.446.151-.115 7.46 3.292c.277 2.413-1.641 7.146-3.171 8.27zm-8.187-15.49l7.669-2.979a14.459 14.459 0 013.747 8.184c-3.841-1.681-7.555-3.314-11.266-4.94-.071-.027-.094-.156-.148-.262zm-9.324 9.323l-.128.085c-.922-.424-1.84-.864-2.769-1.268-1.452-.637-2.912-1.255-4.37-1.873a.645.645 0 01-.433-.778 14.159 14.159 0 011.324-4.86c.462-.918 1.062-1.768 1.609-2.641a.366.366 0 01.252-.144c.05 0 .131.108.161.183.151.373.288.751.433 1.127.625 1.635 1.243 3.273 1.873 4.9.5 1.281 1.023 2.553 1.524 3.832.2.475.353.96.523 1.438zm5.01-16.823c-1.488 3.825-4.754 11.049-5.142 11.321-.392-.973-.788-1.931-1.164-2.9-.516-1.323-1-2.658-1.529-3.973-.31-.768-.323-.854.288-1.327a14.86 14.86 0 016.177-2.916c.422-.083.848-.125 1.372-.2zm2.981 28.273l5.015-11.37.176.032 2.989 7.7a14.063 14.063 0 01-8.177 3.636zm-4.22-7.649v.144l-7.9 3.085c-.811-1.334-1.667-2.563-2.332-3.89a10.946 10.946 0 01-1.145-4.352zm.01-12.966c.137-.395.2-.632.3-.864q.768-1.792 1.549-3.579c.433-1 .864-1.992 1.333-2.975a.576.576 0 01.442-.288 12.533 12.533 0 011.851.19 14.819 14.819 0 014.43 1.661c.6.339 1.138.778 1.856 1.278zm5.339 13.019l.133.144c-.349.766-.7 1.527-1.046 2.3-.72 1.644-1.441 3.3-2.18 4.933a.6.6 0 01-.46.3 17.194 17.194 0 01-2.128-.3 15.092 15.092 0 01-4.263-1.7 16.2 16.2 0 01-1.585-1.178z" fill="#f6f6f6"/></svg>