<svg xmlns="http://www.w3.org/2000/svg" width="132.028" height="132.028" viewBox="0 0 132.028 132.028"><g fill="none"><path d="M97.731 25.407a20.01 20.01 0 0110.543 11.11l8.91 23.215a20.01 20.01 0 01-.403 15.31l-10.115 22.716a20.01 20.01 0 01-11.11 10.542l-23.214 8.91a20.01 20.01 0 01-15.31-.403l-22.715-10.114a20.01 20.01 0 01-10.542-11.11l-8.91-23.215a20.01 20.01 0 01.402-15.31L25.38 34.342A20.01 20.01 0 0136.491 23.8l23.215-8.91a20.01 20.01 0 0115.31.403z"/><path d="M72.167 21.69a12.922 12.922 0 00-9.951-.26L39 30.34a12.922 12.922 0 00-7.221 6.851L21.664 59.907a12.922 12.922 0 00-.26 9.951l8.91 23.215a12.922 12.922 0 006.851 7.222l22.716 10.115a12.922 12.922 0 009.951.26l23.215-8.909a12.922 12.922 0 007.221-6.852l10.116-22.716a12.922 12.922 0 00.26-9.951l-8.91-23.215a12.922 12.922 0 00-6.851-7.221L72.167 21.69m2.85-6.398l22.715 10.116a20.01 20.01 0 0110.541 11.11l8.91 23.214a20.01 20.01 0 01-.401 15.31l-10.116 22.716a20.01 20.01 0 01-11.11 10.542l-23.214 8.91a20.01 20.01 0 01-15.31-.402l-22.716-10.115a20.01 20.01 0 01-10.542-11.11l-8.91-23.215a20.01 20.01 0 01.402-15.31l10.116-22.716a20.01 20.01 0 0111.11-10.541l23.214-8.91a20.01 20.01 0 0115.31.401z" fill="#69cc1f"/></g></svg>