<svg xmlns="http://www.w3.org/2000/svg" width="1048.304" height="1048.304" viewBox="0 0 1048.304 1048.304"><g fill="#69cc1f"><path d="M487.3 909.945l-224.883-100.14c-17.09-7.61-30.193-21.419-36.896-38.884l-88.207-229.826c-6.703-17.466-6.204-36.496 1.406-53.586l100.14-224.883c7.61-17.09 21.42-30.193 38.885-36.896l229.825-88.207c17.465-6.703 36.496-6.204 53.585 1.406L786.04 239.07c17.09 7.61 30.193 21.42 36.896 38.885l88.207 229.825c6.703 17.466 6.204 36.496-1.406 53.586l-100.14 224.883c-7.61 17.09-21.42 30.193-38.885 36.896L540.886 911.35c-17.466 6.703-36.496 6.204-53.586-1.406z"/><path d="M548.945 166.35c-9.765-4.35-20.64-4.635-30.62-.804L288.5 253.753c-9.98 3.83-17.87 11.318-22.22 21.083L166.14 499.72c-4.348 9.765-4.634 20.64-.803 30.62l88.207 229.825c3.83 9.98 11.318 17.872 21.083 22.22l224.884 100.14c9.765 4.348 20.64 4.634 30.62.803l229.825-88.207c9.98-3.83 17.872-11.318 22.22-21.083l100.14-224.884c4.348-9.765 4.634-20.64.803-30.62l-88.207-229.826c-3.83-9.98-11.318-17.87-21.083-22.22L548.945 166.35m24.42-54.84L798.25 211.65a100.052 100.052 0 0152.708 55.55l88.208 229.825a100.052 100.052 0 01-2.01 76.55L837.017 798.458a100.054 100.054 0 01-55.55 52.709l-229.825 88.207a100.051 100.051 0 01-76.55-2.01L250.207 837.226a100.052 100.052 0 01-52.708-55.55L109.29 551.85a100.052 100.052 0 012.01-76.55l100.14-224.884a100.052 100.052 0 0155.55-52.708L496.814 109.5a100.052 100.052 0 0176.55 2.01z"/></g></svg>