<svg xmlns="http://www.w3.org/2000/svg" width="73.936" height="73.936" viewBox="0 0 73.936 73.936"><g fill="#69cc1f"><path d="M33.206 63.787l-13.63-6.07a7.952 7.952 0 01-4.216-4.443l-5.346-13.93a7.952 7.952 0 01.16-6.123l6.07-13.63a7.952 7.952 0 014.443-4.216l13.93-5.346a7.952 7.952 0 016.123.16l13.63 6.07a7.952 7.952 0 014.216 4.444l5.346 13.928a7.952 7.952 0 01-.16 6.124l-6.07 13.63a7.952 7.952 0 01-4.444 4.216L39.33 63.947a7.952 7.952 0 01-6.124-.16z"/><path d="M41.554 8.361l-1.628 3.656a5.964 5.964 0 00-4.593-.12l-13.929 5.346a5.964 5.964 0 00-3.332 3.162l-6.07 13.63a5.964 5.964 0 00-.12 4.593l5.346 13.929a5.964 5.964 0 003.162 3.333l13.63 6.069a5.964 5.964 0 004.593.12l13.928-5.346a5.964 5.964 0 003.333-3.162l6.07-13.63a5.964 5.964 0 00.12-4.593L56.718 21.42a5.964 5.964 0 00-3.162-3.333l-13.63-6.07 1.628-3.656m0 0l13.63 6.07a10.005 10.005 0 015.27 5.555L65.8 33.914a10.006 10.006 0 01-.2 7.655L59.53 55.2a10.005 10.005 0 01-5.555 5.27l-13.928 5.347a10.01 10.01 0 01-7.655-.201l-13.63-6.07a10.005 10.005 0 01-5.27-5.554L8.145 40.06a10.005 10.005 0 01.2-7.654l6.07-13.63a10.005 10.005 0 015.554-5.27L33.9 8.16a10.005 10.005 0 017.654.2z"/></g></svg>