<svg xmlns="http://www.w3.org/2000/svg" width="101.662" height="101.662" viewBox="0 0 101.662 101.662"><g transform="matrix(0.914, 0.407, -0.407, 0.914, 31.319, 0)" fill="none"><path d="M50.305,0a10,10,0,0,1,7.071,2.929L74.071,19.624A10,10,0,0,1,77,26.695v23.61a10,10,0,0,1-2.929,7.071L57.376,74.071A10,10,0,0,1,50.305,77H26.695a10,10,0,0,1-7.071-2.929L2.929,57.376A10,10,0,0,1,0,50.305V26.695a10,10,0,0,1,2.929-7.071L19.624,2.929A10,10,0,0,1,26.695,0Z" stroke="none"/><path d="M 26.6949348449707 -7.62939453125e-06 L 26.6949348449707 3.999992370605469 C 25.09228134155273 3.999992370605469 23.58554840087891 4.624114990234375 22.45227813720703 5.757369995117188 L 5.757362365722656 22.45230102539063 C 4.624107360839844 23.58555603027344 4 25.09228897094727 4 26.69494247436523 L 4 50.30516815185547 C 4 51.90782165527344 4.624107360839844 53.41455459594727 5.757347106933594 54.54779434204102 L 22.45227813720703 71.24275207519531 C 23.58552169799805 72.37600708007813 25.09225463867188 73.00011444091797 26.69491958618164 73.00011444091797 L 50.30508041381836 73.00011444091797 C 51.90773391723633 73.00011444091797 53.41446685791016 72.37600708007813 54.54772186279297 71.24275207519531 L 71.24263000488281 54.54783630371094 C 72.37589263916016 53.41456604003906 73 51.9078369140625 73 50.30518341064453 L 73 26.69495391845703 C 73 25.09230041503906 72.37589263916016 23.58556747436523 71.24263763427734 22.45231246948242 L 54.54770660400391 5.757354736328125 C 53.41446685791016 4.624114990234375 51.90774536132813 4.000007629394531 50.30508041381836 4.000007629394531 L 26.6949348449707 3.999992370605469 L 26.6949348449707 -7.62939453125e-06 M 26.6949348449707 -7.62939453125e-06 L 50.30508041381836 7.62939453125e-06 C 52.95725250244141 7.62939453125e-06 55.50078582763672 1.053565979003906 57.37614440917969 2.928939819335938 L 74.07106781005859 19.62388610839844 C 75.94642639160156 21.49924850463867 77 24.04278182983398 77 26.69495391845703 L 77 50.30518341064453 C 77 52.95734024047852 75.94642639160156 55.50087356567383 74.07106781005859 57.37624740600586 L 57.37614440917969 74.07118225097656 C 55.50078582763672 75.94654083251953 52.95725250244141 77.00011444091797 50.30508041381836 77.00011444091797 L 26.69491958618164 77.00011444091797 C 24.04274749755859 77.00011444091797 21.49919891357422 75.94654083251953 19.62384033203125 74.0711669921875 L 2.928916931152344 57.376220703125 C 1.053558349609375 55.50086212158203 0 52.95732879638672 0 50.30516815185547 L 0 26.69494247436523 C 0 24.04276657104492 1.053573608398438 21.49923324584961 2.928932189941406 19.62387466430664 L 19.62385177612305 2.928939819335938 C 21.49922561645508 1.053565979003906 24.04275894165039 -7.62939453125e-06 26.6949348449707 -7.62939453125e-06 Z" stroke="none" fill="#69cc1f"/></g></svg>