<svg xmlns="http://www.w3.org/2000/svg" width="1515.684" height="1515.684" viewBox="0 0 1515.684 1515.684"><g transform="matrix(0.914, 0.407, -0.407, 0.914, 466.934, 0)" fill="#69cc1f"><path d="M 770.3372802734375 1118 L 377.6627197265625 1118 C 358.965087890625 1118 341.3865356445313 1110.71875 328.1654663085938 1097.49755859375 L 50.50254440307617 819.8345947265625 C 37.28127288818359 806.6133422851563 30 789.0347900390625 30 770.337158203125 L 30.00018119812012 377.6627807617188 C 30.00018119812012 358.9649658203125 37.28145599365234 341.3864135742188 50.50272750854492 328.1653442382813 L 328.1656494140625 50.50260543823242 C 341.38671875 37.28133392333984 358.9652709960938 30.00006103515625 377.6630859375 30.00006103515625 L 770.3372802734375 30.00006103515625 C 789.034912109375 30.00006103515625 806.6134643554688 37.28133392333984 819.834716796875 50.50278854370117 L 1097.497314453125 328.16552734375 C 1110.71875 341.3865966796875 1118 358.9651489257813 1118 377.6627807617188 L 1118 770.3373413085938 C 1118 789.03515625 1110.71875 806.6137084960938 1097.497436523438 819.8347778320313 L 819.834716796875 1097.49755859375 C 806.6136474609375 1110.71875 789.0350952148438 1118 770.3372802734375 1118 Z" stroke="none"/><path d="M 377.6630249023438 60.0001220703125 C 366.9785766601563 60.0001220703125 356.93359375 64.160888671875 349.3786010742188 71.7156982421875 L 71.7158203125 349.3784790039063 C 64.1607666015625 356.9334716796875 60 366.9784545898438 60 377.6626586914063 L 60 770.3370361328125 C 60 781.0216674804688 64.16064453125 791.0664672851563 71.715576171875 798.6214599609375 L 349.37841796875 1076.284301757813 C 356.9334106445313 1083.839233398438 366.9783935546875 1088 377.6627807617188 1088 L 770.337158203125 1088 C 781.0216064453125 1088 791.0665893554688 1083.839233398438 798.62158203125 1076.284301757813 L 1076.2841796875 798.6217041015625 C 1083.839233398438 791.066650390625 1088 781.0216674804688 1088 770.3372802734375 L 1088 377.662841796875 C 1088 366.9784545898438 1083.839233398438 356.9334716796875 1076.2841796875 349.3784790039063 L 798.62158203125 71.7158203125 C 791.0665893554688 64.160888671875 781.0216064453125 60.0001220703125 770.337158203125 60.0001220703125 L 377.6630249023438 60.0001220703125 M 377.6630249023438 0.0001220703125 L 770.337158203125 0.0001220703125 C 796.8590087890625 0.0001220703125 822.294189453125 10.53564453125 841.0479736328125 29.2894287109375 L 1118.710571289063 306.9520874023438 C 1137.46435546875 325.7058715820313 1148 351.1412353515625 1148 377.662841796875 L 1148 770.3372802734375 C 1148 796.8590698242188 1137.46435546875 822.2942504882813 1118.710571289063 841.048095703125 L 841.0479736328125 1118.710693359375 C 822.294189453125 1137.464233398438 796.8587646484375 1148 770.337158203125 1148 L 377.6627807617188 1148 C 351.1411743164063 1148 325.7056274414063 1137.464233398438 306.9520263671875 1118.710693359375 L 29.2891845703125 841.0478515625 C 10.53564453125 822.2942504882813 0 796.85888671875 0 770.3370361328125 L 0 377.6626586914063 C 0 351.1410522460938 10.5357666015625 325.7056884765625 29.2894287109375 306.9520874023438 L 306.9522094726563 29.289306640625 C 325.7059936523438 10.53564453125 351.1414184570313 0.0001220703125 377.6630249023438 0.0001220703125 Z" stroke="none" fill="#69cc1f"/></g></svg>