<svg xmlns="http://www.w3.org/2000/svg" width="218.996" height="49.302" viewBox="0 0 218.996 49.302"><g transform="translate(-0.56 -0.5)"><path d="M215.489,2A2.492,2.492,0,0,0,213,4.489v7.964a.574.574,0,0,0,1.148,0V4.489a1.342,1.342,0,0,1,1.341-1.341h8.629a.574.574,0,0,0,0-1.148Z" transform="translate(-179.475 -1)" fill="#69cc1f" stroke="#69cc1f" stroke-width="1"/><path d="M439.957,204a.574.574,0,0,0-.574.574v10.42a1.342,1.342,0,0,1-1.34,1.34h-8a.574.574,0,1,0,0,1.148h8a2.492,2.492,0,0,0,2.489-2.489V204.574a.574.574,0,0,0-.574-.574Z" transform="translate(-356.311 -168.182)" fill="#69cc1f" stroke="#69cc1f" stroke-width="1"/><path d="M438.985,2h-7.839a.574.574,0,0,0,0,1.148h7.839a1.342,1.342,0,0,1,1.34,1.34v9.933a.574.574,0,0,0,1.148,0V4.489A2.492,2.492,0,0,0,438.985,2Z" transform="translate(-357.254 -1)" fill="#69cc1f" stroke="#69cc1f" stroke-width="1"/><path d="M222.913,231.5h-7.422a1.342,1.342,0,0,1-1.34-1.34v-7.377a.574.574,0,1,0-1.148,0v7.377a2.492,2.492,0,0,0,2.489,2.489h7.421a.574.574,0,1,0,0-1.148Z" transform="translate(-179.477 -183.351)" fill="#69cc1f" stroke="#69cc1f" stroke-width="1"/><path d="M16.658,60.39a4.307,4.307,0,0,0-2.077-1.4,6.939,6.939,0,0,0-2.437-.479,6.437,6.437,0,0,0-1.4.16,4.942,4.942,0,0,0-1.358.519,2.782,2.782,0,0,0-1.039.879,2.275,2.275,0,0,0-.4,1.358,2.251,2.251,0,0,0,.959,1.957,9.133,9.133,0,0,0,2.4,1.158q1.478.479,3.156.959a12.561,12.561,0,0,1,3.116,1.358,7.356,7.356,0,0,1,2.437,2.357,7.183,7.183,0,0,1,.959,3.955,9.092,9.092,0,0,1-.879,4.114A8.258,8.258,0,0,1,17.7,80.2a9.883,9.883,0,0,1-3.475,1.718,15.055,15.055,0,0,1-4.154.559,15.143,15.143,0,0,1-5.113-.839A12.813,12.813,0,0,1,.56,78.925l4.434-4.873a6.7,6.7,0,0,0,2.4,2,7.2,7.2,0,0,0,3.036.679,7.35,7.35,0,0,0,1.518-.16,5.113,5.113,0,0,0,1.4-.559,2.778,2.778,0,0,0,1-.919,2.208,2.208,0,0,0,.4-1.318,2.323,2.323,0,0,0-1-2A8.372,8.372,0,0,0,11.306,70.5q-1.478-.519-3.2-1.039a14.351,14.351,0,0,1-3.2-1.4,7.907,7.907,0,0,1-2.477-2.317,6.735,6.735,0,0,1-.959-3.795,8.655,8.655,0,0,1,.879-3.995,9,9,0,0,1,2.4-2.876A10.356,10.356,0,0,1,8.23,53.359a13.706,13.706,0,0,1,4.035-.6,15.863,15.863,0,0,1,4.634.679,10.687,10.687,0,0,1,4.035,2.277Z" transform="translate(0 -42.114)" fill="#4e4e55"/><path d="M143.561,62.593h-8.069V57.08h22.37v5.513h-8.069V85.362h-6.232Z" transform="translate(-112.474 -45.715)" fill="#4e4e55"/><path d="M478.814,60.829a6.073,6.073,0,0,0-2.277-1.718,7.371,7.371,0,0,0-3.076-.6,7.673,7.673,0,0,0-5.872,2.6,9.077,9.077,0,0,0-1.718,2.876,10.733,10.733,0,0,0-.6,3.635,10.857,10.857,0,0,0,.6,3.675,9.709,9.709,0,0,0,1.718,2.876,7.887,7.887,0,0,0,2.517,1.877,7.468,7.468,0,0,0,3.156.679,7.028,7.028,0,0,0,3.4-.8,6.759,6.759,0,0,0,2.437-2.237l5.193,3.875a10.814,10.814,0,0,1-4.554,3.715,14.091,14.091,0,0,1-5.672,1.2,17.424,17.424,0,0,1-6.112-1.039,14.148,14.148,0,0,1-4.833-2.956,13.937,13.937,0,0,1-3.2-4.714,17.477,17.477,0,0,1,0-12.3,13.515,13.515,0,0,1,3.2-4.674,13.838,13.838,0,0,1,4.833-3,17.424,17.424,0,0,1,6.112-1.039,13.433,13.433,0,0,1,2.477.24,12.071,12.071,0,0,1,2.557.679,11.22,11.22,0,0,1,2.437,1.278,9.611,9.611,0,0,1,2.077,1.957Z" transform="translate(-381.97 -42.114)" fill="#4e4e55"/><path d="M633.657,57.08h6.232V68.824L650.874,57.08h8.149L646.44,70.222,660.1,85.362h-8.708l-11.5-13.422V85.362h-6.232Z" transform="translate(-527.723 -45.715)" fill="#4e4e55"/><path d="M809.28,57.08h8.469l12.024,19.653h.08V57.08h6.232V85.362h-8.149L815.591,65.229h-.08V85.362H809.28Z" transform="translate(-674.115 -45.715)" fill="#69cc1f"/><path d="M1028.828,74.457a13.641,13.641,0,0,1-.759,4.634,10.141,10.141,0,0,1-5.992,6.112,15.664,15.664,0,0,1-10.346,0,10.538,10.538,0,0,1-3.755-2.437,10.34,10.34,0,0,1-2.237-3.675,13.641,13.641,0,0,1-.759-4.634V57.08h6.232V74.217a7.2,7.2,0,0,0,.4,2.437,6.341,6.341,0,0,0,1.2,1.957,5.811,5.811,0,0,0,1.8,1.278,6.082,6.082,0,0,0,2.317.439,5.372,5.372,0,0,0,5.233-3.675,6.6,6.6,0,0,0,.439-2.437V57.08h6.232Z" transform="translate(-837.242 -45.715)" fill="#69cc1f"/><path d="M1182.87,57.08h10.546a24.391,24.391,0,0,1,3.675.28,9.529,9.529,0,0,1,3.356,1.039,6.229,6.229,0,0,1,2.4,2.157,6.674,6.674,0,0,1,.919,3.715,5.953,5.953,0,0,1-1.358,3.995,7.3,7.3,0,0,1-3.515,2.237v.08a7.544,7.544,0,0,1,2.517.8,6.035,6.035,0,0,1,1.957,1.478,5.917,5.917,0,0,1,1.278,2.077,7.361,7.361,0,0,1,.439,2.557,6.9,6.9,0,0,1-.959,3.755,7.609,7.609,0,0,1-2.477,2.4,10.855,10.855,0,0,1-3.435,1.318,18,18,0,0,1-3.755.4H1182.87Zm6.232,11.3h4.514a6.084,6.084,0,0,0,1.4-.16,3.909,3.909,0,0,0,1.278-.519,2.539,2.539,0,0,0,.879-.959,2.744,2.744,0,0,0,.36-1.438,2.417,2.417,0,0,0-.4-1.438,2.445,2.445,0,0,0-.959-.919,4.285,4.285,0,0,0-1.358-.439,7.165,7.165,0,0,0-1.478-.16H1189.1Zm0,11.7h5.592a6.611,6.611,0,0,0,1.438-.16,3.855,3.855,0,0,0,1.358-.559,2.993,2.993,0,0,0,.959-1.039,2.884,2.884,0,0,0,.4-1.558,2.354,2.354,0,0,0-.519-1.6,2.945,2.945,0,0,0-1.238-.959,6.443,6.443,0,0,0-1.638-.439,12.168,12.168,0,0,0-1.638-.12H1189.1Z" transform="translate(-985.524 -45.715)" fill="#69cc1f"/><path d="M282.146,77.292A15.146,15.146,0,1,0,267,62.146,15.146,15.146,0,0,0,282.146,77.292Z" transform="translate(-222.093 -37.313)" fill="#69cc1f"/><path d="M277.038,44.983a15.992,15.992,0,1,0,6.165,1.186A16.018,16.018,0,0,0,277.038,44.983ZM282.7,61.166c-.1.235-.187.454-.288.668-.356.8-.758,1.585-1.056,2.4a1.794,1.794,0,0,1-1.14,1.177c-.8.288-1.575.649-2.377.934a1.948,1.948,0,0,1-1.129.177c-1.153-.416-2.269-.932-3.384-1.441a1.034,1.034,0,0,1-.452-.521c-.458-1.116-.9-2.24-1.311-3.374a1.017,1.017,0,0,1,.075-.655c.347-.852.709-1.7,1.1-2.534.174-.376.337-.893.651-1.046a30.826,30.826,0,0,1,3.3-1.312,1.586,1.586,0,0,1,1.019,0c1.055.415,2.09.883,3.112,1.379a1.33,1.33,0,0,1,.517.631c.248.534.442,1.095.654,1.647C282.228,59.908,282.46,60.531,282.7,61.166Zm5.371,8.719-4.442-11.446.151-.115,7.46,3.292c.277,2.413-1.641,7.146-3.171,8.27Zm-8.187-15.49,7.669-2.979A14.459,14.459,0,0,1,291.3,59.6c-3.841-1.681-7.555-3.314-11.266-4.94-.071-.027-.094-.156-.148-.262Zm-9.324,9.323-.128.085c-.922-.424-1.84-.864-2.769-1.268-1.452-.637-2.912-1.255-4.37-1.873a.645.645,0,0,1-.433-.778,14.159,14.159,0,0,1,1.324-4.86c.462-.918,1.062-1.768,1.609-2.641a.366.366,0,0,1,.252-.144c.05,0,.131.108.161.183.151.373.288.751.433,1.127.625,1.635,1.243,3.273,1.873,4.9.5,1.281,1.023,2.553,1.524,3.832.2.475.353.96.523,1.438Zm5.01-16.823c-1.488,3.825-4.754,11.049-5.142,11.321-.392-.973-.788-1.931-1.164-2.9-.516-1.323-1-2.658-1.529-3.973-.31-.768-.323-.854.288-1.327A14.86,14.86,0,0,1,274.2,47.1c.422-.083.848-.125,1.372-.2Zm2.981,28.273,5.015-11.37.176.032,2.989,7.7a14.063,14.063,0,0,1-8.177,3.636Zm-4.22-7.649v.144l-7.9,3.085c-.811-1.334-1.667-2.563-2.332-3.89a10.946,10.946,0,0,1-1.145-4.352Zm.01-12.966c.137-.395.2-.632.3-.864q.768-1.792,1.549-3.579c.433-1,.864-1.992,1.333-2.975a.576.576,0,0,1,.442-.288,12.533,12.533,0,0,1,1.851.19,14.819,14.819,0,0,1,4.43,1.661c.6.339,1.138.778,1.856,1.278Zm5.339,13.019.133.144c-.349.766-.7,1.527-1.046,2.3-.72,1.644-1.441,3.3-2.18,4.933a.6.6,0,0,1-.46.3,17.194,17.194,0,0,1-2.128-.3,15.092,15.092,0,0,1-4.263-1.7,16.2,16.2,0,0,1-1.585-1.178Z" transform="translate(-217.108 -35.631)" fill="#f6f6f6"/></g></svg>