<svg xmlns="http://www.w3.org/2000/svg" width="132.028" height="132.028" viewBox="0 0 132.028 132.028"><g transform="matrix(0.914, 0.407, -0.407, 0.914, 40.674, 0)" fill="none"><path d="M62.426,0A20,20,0,0,1,76.569,5.858L94.142,23.431A20,20,0,0,1,100,37.574V62.427a20,20,0,0,1-5.858,14.142L76.569,94.142A20,20,0,0,1,62.426,100H37.574a20,20,0,0,1-14.142-5.858L5.858,76.569A20,20,0,0,1,0,62.426V37.574A20,20,0,0,1,5.858,23.431L23.431,5.858A20,20,0,0,1,37.574,0Z" stroke="none"/><path d="M 37.5736198425293 7 C 34.10118103027344 7 30.83660125732422 8.352241516113281 28.38121795654297 10.80760192871094 L 10.8076171875 28.38121795654297 C 8.352241516113281 30.83660125732422 7 34.10120391845703 7 37.5736198425293 L 7 62.42647933959961 C 7 65.89892578125 8.352218627929688 69.16349792480469 10.8076171875 71.61888122558594 L 28.38121795654297 89.1925048828125 C 30.83657836914063 91.64788055419922 34.10115814208984 93.0001220703125 37.57360076904297 93.0001220703125 L 62.42639923095703 93.0001220703125 C 65.89884185791016 93.0001220703125 69.16342163085938 91.64788055419922 71.61878204345703 89.1925048828125 L 89.19239807128906 71.61888122558594 C 91.64775848388672 69.16352081298828 92.99997711181641 65.89894104003906 92.99997711181641 62.4265022277832 L 93 37.57364273071289 C 92.99997711181641 34.10120391845703 91.64775848388672 30.83660125732422 89.1923828125 28.38124084472656 L 71.61878204345703 10.80762481689453 C 69.16342163085938 8.352241516113281 65.89884185791016 7 62.42639923095703 7 L 37.5736198425293 7 M 37.5736198425293 0 L 62.42639923095703 0 C 67.73074340820313 0 72.81781768798828 2.107139587402344 76.56854248046875 5.857879638671875 L 94.14214324951172 23.43150329589844 C 97.89286041259766 27.18222045898438 99.99997711181641 32.26930236816406 100 37.5736198425293 L 99.99997711181641 62.4265022277832 C 99.99997711181641 67.73084259033203 97.89286041259766 72.81790161132813 94.14214324951172 76.56861877441406 L 76.56854248046875 94.14224243164063 C 72.81781768798828 97.89298248291016 67.73074340820313 100.0001220703125 62.42639923095703 100.0001220703125 L 37.57360076904297 100.0001220703125 C 32.26925659179688 100.0001220703125 27.18218231201172 97.89298248291016 23.43145751953125 94.14224243164063 L 5.857856750488281 76.56861877441406 C 2.10711669921875 72.81790161132813 0 67.73081970214844 0 62.42647933959961 L 0 37.5736198425293 C 0 32.26927947998047 2.107139587402344 27.18222045898438 5.857856750488281 23.43148040771484 L 23.43148040771484 5.857864379882813 C 27.18219757080078 2.107139587402344 32.26927947998047 0 37.5736198425293 0 Z" stroke="none" fill="#69cc1f"/></g></svg>