<svg xmlns="http://www.w3.org/2000/svg" width="73.936" height="73.936" viewBox="0 0 73.936 73.936"><g transform="matrix(0.914, 0.407, -0.407, 0.914, 22.777, 0)" fill="none"><path d="M35.456,0a10,10,0,0,1,7.071,2.929L53.071,13.473A10,10,0,0,1,56,20.544V35.456a10,10,0,0,1-2.929,7.071L42.527,53.071A10,10,0,0,1,35.456,56H20.544a10,10,0,0,1-7.071-2.929L2.929,42.527A10,10,0,0,1,0,35.456V20.544a10,10,0,0,1,2.929-7.071L13.473,2.929A10,10,0,0,1,20.544,0Z" stroke="none"/><path d="M 20.54416656494141 -3.814697265625e-06 L 20.54416656494141 3.999996185302734 C 18.94150161743164 3.999996185302734 17.43476486206055 4.624107360839844 16.30152130126953 5.757350921630859 L 5.757354736328125 16.30154037475586 C 4.624111175537109 17.43479537963867 4 18.9415283203125 4 20.54418563842773 L 4 35.45592880249023 C 4 37.05858612060547 4.624111175537109 38.5653190612793 5.757354736328125 39.69857406616211 L 16.30152130126953 50.24276351928711 C 17.43476486206055 51.37601852416992 18.94150161743164 52.00012969970703 20.54416656494141 52.00011825561523 L 35.45587921142578 52.00011825561523 C 37.05850982666016 52.00011825561523 38.56523132324219 51.37600708007813 39.69847869873047 50.24276351928711 L 50.24264526367188 39.69857406616211 C 51.37588882446289 38.5653190612793 52 37.05858612060547 52 35.45594024658203 L 52 20.54418563842773 C 52 18.9415397644043 51.37588882446289 17.43480682373047 50.24264526367188 16.30155181884766 L 39.698486328125 5.757362365722656 C 38.56523132324219 4.624118804931641 37.05850219726563 4.000007629394531 35.45583343505859 4.000007629394531 L 20.54416656494141 3.999996185302734 L 20.54416656494141 -3.814697265625e-06 M 20.54416656494141 -3.814697265625e-06 L 35.45583343505859 7.62939453125e-06 C 38.10800170898438 7.62939453125e-06 40.65154266357422 1.053573608398438 42.52690887451172 2.928939819335938 L 53.07107925415039 13.47312927246094 C 54.94643402099609 15.34849548339844 56 17.89202880859375 56 20.54418563842773 L 56 35.45594024658203 C 56 38.10809707641602 54.94643402099609 40.65163040161133 53.07107925415039 42.52699661254883 L 42.52690887451172 53.07118606567383 C 40.65165710449219 54.94643783569336 38.10786437988281 56.00011825561523 35.45587539672852 56.00011825561523 C 35.45571136474609 56.00011825561523 35.45599365234375 56.00011825561523 35.45583343505859 56.00011825561523 L 20.54416656494141 56.00011825561523 C 17.89199066162109 56.00012969970703 15.34844589233398 54.94655227661133 13.47308731079102 53.07118606567383 L 2.928920745849609 42.52699661254883 C 1.053565979003906 40.65163040161133 0 38.10808563232422 0 35.45592880249023 L 0 20.54418563842773 C 0 17.89201736450195 1.053565979003906 15.34848403930664 2.928920745849609 13.47311782836914 L 13.47308731079102 2.928928375244141 C 15.34845733642578 1.053562164306641 17.89199829101563 -3.814697265625e-06 20.54416656494141 -3.814697265625e-06 Z" stroke="none" fill="#69cc1f"/></g></svg>