<svg xmlns="http://www.w3.org/2000/svg" width="1048.304" height="1048.304" viewBox="0 0 1048.304 1048.304"><g transform="matrix(0.914, 0.407, -0.407, 0.914, 322.949, 0)" fill="#69cc1f"><path d="M 520.0213623046875 764.0001831054688 L 273.9786376953125 764.0001831054688 C 255.2808685302734 764.0001831054688 237.7023773193359 756.7189331054688 224.4811248779297 743.49755859375 L 50.50262451171875 569.518798828125 C 37.28125 556.2975463867188 30 538.7190551757813 30 520.0213012695313 L 30.00012588500977 273.9785461425781 C 30.00012588500977 255.2808074951172 37.28137588500977 237.7023162841797 50.50262451171875 224.4811859130859 L 224.4812469482422 50.50255966186523 C 237.7023773193359 37.28131103515625 255.2808685302734 30.00006103515625 273.9786376953125 30.00006103515625 L 520.0213623046875 30.00006103515625 C 538.7191162109375 30.00006103515625 556.297607421875 37.28131103515625 569.5188598632813 50.502685546875 L 743.4974975585938 224.4811859130859 C 756.71875 237.7024383544922 764 255.2810668945313 764 273.9786987304688 L 764 520.0215454101563 C 763.9998779296875 538.7191772460938 756.7186279296875 556.2977905273438 743.4973754882813 569.5189208984375 L 569.5188598632813 743.49755859375 C 556.297607421875 756.7189331054688 538.7191162109375 764.0001831054688 520.0213623046875 764.0001831054688 Z" stroke="none"/><path d="M 273.9786376953125 60.00006103515625 C 263.294189453125 60.00006103515625 253.2493286132813 64.16070556640625 245.6943359375 71.715576171875 L 71.71551513671875 245.694580078125 C 64.16064453125 253.2493896484375 60 263.2940673828125 60 273.9785766601563 L 60 520.0213623046875 C 60 530.7056884765625 64.16064453125 540.7505493164063 71.7158203125 548.3057250976563 L 245.6941528320313 722.284423828125 C 253.2493286132813 729.8394165039063 263.294189453125 734.0000610351563 273.978515625 734.0000610351563 L 520.021484375 734.0000610351563 C 530.705810546875 734.0000610351563 540.75048828125 729.8394165039063 548.3056640625 722.2842407226563 L 722.2839965820313 548.3060302734375 C 729.8391723632813 540.7509155273438 734 530.7056884765625 734 520.0216064453125 L 734 273.9785766601563 C 734 263.2942504882813 729.83935546875 253.2493896484375 722.2843017578125 245.6943969726563 L 548.3052978515625 71.715576171875 C 540.75048828125 64.16070556640625 530.705810546875 60.00006103515625 520.021484375 60.00006103515625 L 273.9786376953125 60.00006103515625 M 273.9786376953125 6.103515625e-05 L 520.021484375 6.103515625e-05 C 546.54296875 6.103515625e-05 571.978515625 10.53570556640625 590.7319946289063 29.28936767578125 L 764.710693359375 203.2678833007813 C 783.46435546875 222.0215454101563 794 247.4569091796875 794 273.9785766601563 L 794 520.0216064453125 C 793.9998168945313 546.543212890625 783.4641723632813 571.9785766601563 764.710693359375 590.7322387695313 L 590.7319946289063 764.7107543945313 C 571.978515625 783.4644165039063 546.5431518554688 794.0000610351563 520.021484375 794.0000610351563 L 273.978515625 794.0000610351563 C 247.4568481445313 794.0000610351563 222.021484375 783.4644165039063 203.267822265625 764.7107543945313 L 29.289306640625 590.7320556640625 C 10.53564453125 571.9783935546875 0 546.5430908203125 0 520.0213623046875 L 0 273.9785766601563 C 0 247.4569091796875 10.53564453125 222.0214233398438 29.289306640625 203.2678833007813 L 203.2680053710938 29.28924560546875 C 222.0216674804688 10.53558349609375 247.4569702148438 6.103515625e-05 273.9786376953125 6.103515625e-05 Z" stroke="none" fill="#69cc1f"/></g></svg>