<svg xmlns="http://www.w3.org/2000/svg" width="73.936" height="73.936" viewBox="0 0 73.936 73.936"><g transform="matrix(0.914, 0.407, -0.407, 0.914, 22.777, 0)" fill="#69cc1f"><path d="M 35.45582962036133 54.0001220703125 L 20.54416084289551 54.0001220703125 C 18.40727996826172 54.0001220703125 16.39830017089844 53.16797256469727 14.88731002807617 51.65697479248047 L 4.34315013885498 41.1127815246582 C 2.83213996887207 39.60178375244141 2 37.59280395507813 2 35.4559326171875 L 2.000010013580322 20.5441837310791 C 2.000010013580322 18.40730285644531 2.832149982452393 16.3983325958252 4.343140125274658 14.88733291625977 L 14.88731002807617 4.34315299987793 C 16.3983097076416 2.832152843475342 18.40728950500488 2.000002861022949 20.54417037963867 2.000002861022949 L 35.45584106445313 2.000002861022949 C 37.59270858764648 2.000002861022949 39.60168838500977 2.832152843475342 41.11270141601563 4.34315299987793 L 51.6568717956543 14.88734340667725 C 53.1678581237793 16.39834213256836 54 18.40731239318848 54 20.54419326782227 L 54 35.4559440612793 C 54 37.59280395507813 53.1678581237793 39.60178375244141 51.6568603515625 41.11279296875 L 41.11270141601563 51.65697479248047 C 39.60169982910156 53.16797256469727 37.59272003173828 54.0001220703125 35.45582962036133 54.0001220703125 Z" stroke="none"/><path d="M 20.54416656494141 -3.814697265625e-06 L 20.54416656494141 3.999996185302734 C 18.94150161743164 3.999996185302734 17.43476486206055 4.624107360839844 16.30152130126953 5.757350921630859 L 5.757354736328125 16.30154037475586 C 4.624111175537109 17.43479537963867 4 18.9415283203125 4 20.54418563842773 L 4 35.45592880249023 C 4 37.05858612060547 4.624111175537109 38.5653190612793 5.757354736328125 39.69857406616211 L 16.30152130126953 50.24276351928711 C 17.43476486206055 51.37601852416992 18.94150161743164 52.00012969970703 20.54416656494141 52.00011825561523 L 35.45587921142578 52.00011825561523 C 37.05850982666016 52.00011825561523 38.56523132324219 51.37600708007813 39.69847869873047 50.24276351928711 L 50.24264526367188 39.69857406616211 C 51.37588882446289 38.5653190612793 52 37.05858612060547 52 35.45594024658203 L 52 20.54418563842773 C 52 18.9415397644043 51.37588882446289 17.43480682373047 50.24264526367188 16.30155181884766 L 39.698486328125 5.757362365722656 C 38.56523132324219 4.624118804931641 37.05850219726563 4.000007629394531 35.45583343505859 4.000007629394531 L 20.54416656494141 3.999996185302734 L 20.54416656494141 -3.814697265625e-06 M 20.54416656494141 -3.814697265625e-06 L 35.45583343505859 7.62939453125e-06 C 38.10800170898438 7.62939453125e-06 40.65154266357422 1.053573608398438 42.52690887451172 2.928939819335938 L 53.07107925415039 13.47312927246094 C 54.94643402099609 15.34849548339844 56 17.89202880859375 56 20.54418563842773 L 56 35.45594024658203 C 56 38.10809707641602 54.94643402099609 40.65163040161133 53.07107925415039 42.52699661254883 L 42.52690887451172 53.07118606567383 C 40.65165710449219 54.94643783569336 38.10786437988281 56.00011825561523 35.45587539672852 56.00011825561523 C 35.45571136474609 56.00011825561523 35.45599365234375 56.00011825561523 35.45583343505859 56.00011825561523 L 20.54416656494141 56.00011825561523 C 17.89199066162109 56.00012969970703 15.34844589233398 54.94655227661133 13.47308731079102 53.07118606567383 L 2.928920745849609 42.52699661254883 C 1.053565979003906 40.65163040161133 0 38.10808563232422 0 35.45592880249023 L 0 20.54418563842773 C 0 17.89201736450195 1.053565979003906 15.34848403930664 2.928920745849609 13.47311782836914 L 13.47308731079102 2.928928375244141 C 15.34845733642578 1.053562164306641 17.89199829101563 -3.814697265625e-06 20.54416656494141 -3.814697265625e-06 Z" stroke="none" fill="#69cc1f"/></g></svg>